<svg width="26" height="25" viewBox="0 0 26 25" fill="none" xmlns="http://www.w3.org/2000/svg">
<g clip-path="url(#clip0)">
<path fill-rule="evenodd" clip-rule="evenodd" d="M18.4591 2.14447H13.7534V0H7.36336V2.14447H2.65771V5.53047H18.4591V2.14447ZM9.05636 1.693H12.0604V2.14447H9.05636V1.693Z" fill="#085CD9"/>
<path d="M16.9555 12.0942L17.2749 7.22348H3.84191L4.91505 23.5892H11.3582C10.5195 22.4003 10.0262 20.9511 10.0262 19.3888C10.0262 15.487 13.1015 12.29 16.9555 12.0942Z" fill="#085CD9"/>
<path fill-rule="evenodd" clip-rule="evenodd" d="M11.7193 19.3888C11.7193 16.2949 14.2364 13.7777 17.3305 13.7777C20.4245 13.7777 22.9416 16.2948 22.9416 19.3888C22.9416 22.4828 20.4245 25 17.3305 25C14.2364 25 11.7193 22.4828 11.7193 19.3888ZM19.1907 22.4462L20.3878 21.249L18.5276 19.3888L20.3878 17.5286L19.1907 16.3315L17.3305 18.1917L15.4702 16.3315L14.2731 17.5286L16.1333 19.3888L14.2731 21.249L15.4702 22.4462L17.3305 20.5859L19.1907 22.4462Z" fill="#085CD9"/>
</g>
<defs>
<clipPath id="clip0">
<rect width="25" height="25" fill="white" transform="translate(0.299805)"/>
</clipPath>
</defs>
</svg>
