<svg width="26" height="25" viewBox="0 0 26 25" fill="none" xmlns="http://www.w3.org/2000/svg">
<path d="M13.2002 12.5C16.22 12.5 18.669 9.70152 18.669 6.25007C18.669 2.79861 16.22 0 13.2002 0C10.1804 0 7.73145 2.79852 7.73145 6.25011C7.73145 9.70169 10.1805 12.5 13.2002 12.5ZM10.2079 4.5471C10.5834 5.52827 11.7735 6.25007 13.2002 6.25007C14.6269 6.25007 17.1065 6.08225 17.1065 7.03136C17.1065 9.18892 15.3579 10.9377 13.2002 10.9377C11.0442 10.9377 9.29391 9.18892 9.29391 7.03136C9.29395 6.08216 9.64652 5.22386 10.2079 4.5471Z" fill="#085CD9"/>
<path d="M22.5752 18.75C22.5752 16.1606 20.4772 14.0625 17.8877 14.0625H14.3031L14.6542 14.3886C14.8381 14.5595 14.8381 14.8366 14.6542 15.0074L13.9054 15.7029C13.7214 15.8738 13.6434 16.1843 13.7312 16.3966L15.1744 19.887C15.2621 20.0992 15.2248 20.4311 15.0908 20.6282L13.4428 23.0544C13.3089 23.2515 13.0918 23.2515 12.9579 23.0544L11.3098 20.6282C11.176 20.4311 11.1385 20.0992 11.2263 19.887L12.6696 16.3966C12.7573 16.1843 12.6792 15.8737 12.4953 15.7029L11.7465 15.0074C11.5626 14.8365 11.5626 14.5594 11.7465 14.3886L12.0976 14.0625H8.51267C5.92325 14.0625 3.8252 16.1606 3.8252 18.75V23.4375C3.8252 24.3012 4.52399 24.9999 5.38766 24.9999H21.0127C21.8764 24.9999 22.5752 24.3011 22.5752 23.4375V18.75H22.5752Z" fill="#085CD9"/>
</svg>
