<svg width="26" height="25" viewBox="0 0 26 25" fill="none" xmlns="http://www.w3.org/2000/svg">
<path d="M24.2572 3.49892C24.2123 3.17659 23.9804 2.91144 23.6669 2.8243L13.619 0.029963C13.4757 -0.00990628 13.3244 -0.00990628 13.1811 0.029963L3.13314 2.8243C2.81963 2.91144 2.58771 3.17648 2.54283 3.49892C2.48455 3.91798 1.15503 13.8195 4.56516 18.7452C7.97126 23.665 12.996 24.9258 13.2082 24.9771C13.2713 24.9924 13.3355 24.9999 13.4 24.9999C13.4645 24.9999 13.5288 24.9923 13.5919 24.9771C13.8042 24.9258 18.8289 23.665 22.2349 18.7452C25.645 13.8196 24.3155 3.91809 24.2572 3.49892ZM19.8797 9.27953L13.0259 16.1332C12.8665 16.2927 12.6573 16.3726 12.4483 16.3726C12.2392 16.3726 12.0301 16.2928 11.8706 16.1332L7.63303 11.8957C7.47976 11.7425 7.3937 11.5346 7.3937 11.318C7.3937 11.1013 7.47987 10.8935 7.63303 10.7403L8.47442 9.89892C8.79348 9.57996 9.3108 9.57985 9.62976 9.89892L12.4483 12.7174L17.8829 7.28269C18.0361 7.12942 18.2439 7.04336 18.4606 7.04336C18.6773 7.04336 18.8851 7.12942 19.0383 7.28269L19.8797 8.12408C20.1987 8.44314 20.1987 8.96046 19.8797 9.27953Z" fill="#085CD9"/>
</svg>
