<svg width="34" height="25" viewBox="0 0 34 25" fill="none" xmlns="http://www.w3.org/2000/svg">
<path d="M22.1279 12.8286C21.8999 13.1237 21.4506 13.1237 21.2226 12.8286L17.5008 8.10758C17.2057 7.73204 17.4739 7.17544 17.9568 7.17544H19.4187V0.375537C19.4187 0.16765 19.5863 0 19.7942 0H23.5496C23.7575 0 23.9251 0.16765 23.9251 0.375537V7.17544H25.3871C25.8699 7.17544 26.1381 7.73204 25.8431 8.10758L22.1279 12.8286Z" fill="#085CD9"/>
<path fill-rule="evenodd" clip-rule="evenodd" d="M32.1802 7.10836V17.8648C32.7703 18.0123 33.2196 18.5689 33.2062 19.206V20.9496C33.2062 21.7275 32.5759 22.3243 31.8315 22.3243H29.8666C29.424 23.8868 28.0091 25 26.3057 25C24.6024 25 23.1874 23.8466 22.7448 22.3243H10.607C10.1644 23.8868 8.75609 25 7.04606 25C5.34273 25 3.92776 23.8466 3.48516 22.3243H1.77512C0.997226 22.3243 0.400391 21.6939 0.400391 20.9496V19.206C0.400391 18.5019 0.95699 17.905 1.62759 17.8313V14.3039C1.62759 12.9694 2.70726 11.8897 4.04176 11.8897L7.27406 11.6215L10.1308 7.31625C10.1524 7.29829 10.172 7.26878 10.1918 7.23906C10.2089 7.21331 10.2261 7.1874 10.2448 7.16872C10.6874 6.57859 11.3916 6.16952 12.2097 6.16952H13.9465C14.3891 6.16952 14.7446 6.52494 14.7446 6.96754V13.3919C14.7446 14.3576 15.5292 15.1422 16.4948 15.1422H26.8623C27.828 15.1422 28.6126 14.3576 28.6126 13.3919V7.10836C28.6126 6.592 29.0351 6.16952 29.5515 6.16952H31.2414C31.7577 6.16952 32.1802 6.592 32.1802 7.10836ZM5.18849 21.2782C5.18849 22.2841 6.04686 23.1357 7.04606 23.1357C8.08549 23.1357 8.90362 22.2841 8.90362 21.2782C8.90362 20.2723 8.04525 19.4206 7.04606 19.4206C6.00662 19.4206 5.18849 20.2723 5.18849 21.2782ZM24.4549 21.2782C24.4549 22.2841 25.273 23.1357 26.3124 23.1357C27.3519 23.1357 28.17 22.2841 28.17 21.2782C28.17 20.2723 27.3116 19.4206 26.3124 19.4206C25.273 19.4206 24.4549 20.2723 24.4549 21.2782Z" fill="#085CD9"/>
</svg>
