<svg width="26" height="25" viewBox="0 0 26 25" fill="none" xmlns="http://www.w3.org/2000/svg">
<g clip-path="url(#clip0)">
<path d="M25.1037 15.2739H25.5V14.8776V10.2545V9.85829H25.1037H21.9578C21.7727 9.22508 21.5206 8.61256 21.2053 8.03073L23.4266 5.80941L23.7068 5.52926L23.4266 5.24911L20.1576 1.98007L19.8775 1.69975L19.5973 1.98007L17.3678 4.20955C16.8161 3.91395 16.2376 3.67433 15.6418 3.49468V0.396355V9.15527e-05H15.2455H10.6224H10.2262V0.396355V3.49485C9.66029 3.66553 9.11079 3.88965 8.58615 4.16349L6.40273 1.98007L6.12258 1.69975L5.84244 1.98007L2.57339 5.24898L2.29324 5.52913L2.57339 5.80932L4.70937 7.9453C4.39357 8.51315 4.1385 9.10992 3.94831 9.72611H0.896264H0.5V10.1224V14.7454V15.1418H0.896264H3.91011C4.10414 15.8056 4.37216 16.4467 4.70963 17.0544L2.57339 19.1906L2.29324 19.4708L2.57339 19.7509L5.84244 23.02L6.12258 23.3002L6.40273 23.02L8.58602 20.8367C9.14977 21.1316 9.74378 21.3683 10.3582 21.5428V24.6036V24.9999H10.7545H15.3776H15.7738V24.6036V21.4644C16.3232 21.2904 16.8574 21.0646 17.368 20.7907L19.5973 23.0198L19.8775 23.3001L20.1576 23.0198L23.4266 19.7508L23.7068 19.4706L23.4266 19.1905L21.2053 16.9692C21.4994 16.4267 21.7386 15.8585 21.9193 15.2737H25.1037V15.2739H25.1037ZM18.5477 12.5001C18.5477 15.5956 16.0294 18.1138 12.934 18.1138C9.83848 18.1138 7.32022 15.5955 7.32022 12.5001C7.32022 9.40465 9.83848 6.88635 12.934 6.88635C16.0294 6.88635 18.5477 9.40461 18.5477 12.5001Z" fill="white"/>
</g>
<defs>
<clipPath id="clip0">
<rect width="25" height="25" fill="white" transform="translate(0.5)"/>
</clipPath>
</defs>
</svg>
