<svg width="25" height="25" viewBox="0 0 25 25" fill="none" xmlns="http://www.w3.org/2000/svg">
<g clip-path="url(#clip0)">
<path d="M11.7188 0C10.8559 0 10.1562 0.699609 10.1562 1.5625C10.1562 2.42539 10.8559 3.125 11.7188 3.125C17.3188 3.125 21.875 7.6813 21.875 13.2812C21.875 14.1441 22.5746 14.8438 23.4375 14.8438C24.3004 14.8438 25 14.1441 25 13.2812C25 5.95781 19.0422 0 11.7188 0Z" fill="#F06352"/>
<path d="M17.1875 13.2812C17.1875 14.1441 17.8871 14.8438 18.75 14.8438C19.6129 14.8438 20.3125 14.1441 20.3125 13.2812C20.3125 8.54263 16.4574 4.6875 11.7188 4.6875C10.8559 4.6875 10.1562 5.38711 10.1562 6.25C10.1562 7.11289 10.8559 7.8125 11.7188 7.8125C14.7339 7.8125 17.1875 10.2661 17.1875 13.2812Z" fill="#F06352"/>
<path d="M20.3125 17.9688H18.75C17.6731 17.9688 16.6313 17.823 15.641 17.5522C15.1802 17.4263 14.6877 17.498 14.3059 17.7849L12.0312 19.4924C9.22657 18.0626 6.92974 15.7734 5.50762 12.9608L7.21431 10.6876C7.50156 10.3046 7.5729 9.81177 7.44624 9.3502C7.17617 8.36484 7.0312 7.32495 7.0312 6.25V4.6875C7.0312 3.82803 6.3312 3.125 5.14903 3.125H3.125C1.39239 3.125 -0.00229209 4.54331 2.82813e-06 6.27554C0.0137235 16.6069 8.39312 24.9863 18.7245 25C20.4567 25.0023 21.875 23.6073 21.875 21.875V19.5312C21.875 18.6718 21.172 17.9688 20.3125 17.9688Z" fill="#F06352"/>
</g>
<defs>
<clipPath id="clip0">
<rect width="25" height="25" fill="white"/>
</clipPath>
</defs>
</svg>
