<?xml version="1.0" encoding="UTF-8"?>
<!DOCTYPE svg PUBLIC "-//W3C//DTD SVG 1.1//EN" "http://www.w3.org/Graphics/SVG/1.1/DTD/svg11.dtd">
<!-- Creator: CorelDRAW X8 -->
<svg xmlns="http://www.w3.org/2000/svg" xml:space="preserve" width="297mm" height="210mm" version="1.1" style="shape-rendering:geometricPrecision; text-rendering:geometricPrecision; image-rendering:optimizeQuality; fill-rule:evenodd; clip-rule:evenodd"
viewBox="0 0 29700 21000"
 xmlns:xlink="http://www.w3.org/1999/xlink">
 <defs>
  <style type="text/css">
   <![CDATA[
    .fil0 {fill:white;fill-rule:nonzero}
   ]]>
  </style>
 </defs>
 <g id="Слой_x0020_1">
  <metadata id="CorelCorpID_0Corel-Layer"/>
  <g id="_1571069404560">
   <path class="fil0" d="M6930 10104l-328 0c-6,-10 -16,-34 -28,-71 -57,-220 -111,-362 -161,-426 -51,-63 -122,-95 -216,-95 -26,0 -47,1 -64,4 0,202 4,398 12,588l-295 0c9,-211 14,-448 14,-712 0,-254 -5,-471 -14,-650l295 0c-8,207 -12,394 -12,564 29,1 50,2 64,2 191,0 317,-167 377,-501 4,-24 12,-46 25,-65l282 0c-9,22 -23,60 -42,114 -46,163 -95,282 -148,357 -52,74 -123,130 -212,168l0 12c92,30 164,79 214,149 49,70 113,219 191,447 10,29 26,67 46,115zm1458 -706c0,214 -65,391 -196,532 -131,141 -293,211 -487,211 -184,0 -338,-64 -462,-193 -124,-130 -186,-294 -186,-493 0,-215 65,-392 196,-533 132,-141 294,-211 487,-211 184,0 338,64 462,193 124,129 186,294 186,494zm-288 30c0,-146 -38,-264 -112,-354 -75,-91 -167,-136 -276,-136 -102,0 -189,45 -260,137 -71,91 -106,206 -106,346 0,145 37,263 112,354 75,91 167,137 276,137 101,0 188,-46 259,-138 71,-92 107,-207 107,-346zm2092 676l-304 0c0,-119 -8,-319 -23,-600 -14,-281 -22,-457 -22,-526l-16 0c-7,41 -26,119 -56,232 -29,113 -86,279 -169,499 -82,220 -124,352 -124,395l-231 0c0,-45 -39,-177 -118,-398 -80,-221 -132,-376 -156,-465 -24,-89 -44,-176 -58,-263l-16 0c-1,87 -9,273 -26,560 -16,287 -24,475 -24,566l-276 0c0,-21 25,-231 75,-629 51,-398 76,-642 76,-733l405 0c0,78 43,251 128,517 86,266 128,437 128,511l16 0c0,-75 49,-246 146,-512 97,-267 146,-439 146,-516l402 0c0,144 16,402 48,773 33,370 49,566 49,589zm1322 0l-293 0c7,-198 11,-428 11,-691 0,-150 5,-301 17,-452l-514 0c12,145 18,292 18,439 0,264 3,499 10,704l-293 0c8,-241 13,-480 13,-717 0,-228 -5,-443 -13,-645l1044 0c-8,192 -12,407 -12,645 0,243 4,482 12,717zm1314 -1362c-9,185 -12,397 -12,635 0,265 3,507 12,727l-293 0c8,-201 13,-434 13,-699 0,-184 -2,-336 -7,-456l-164 0c-10,54 -24,111 -40,173 -17,61 -36,124 -57,189 -22,64 -46,129 -72,192 -26,65 -54,126 -84,186 -31,60 -63,115 -97,167 -34,52 -69,97 -106,135 -37,39 -75,70 -115,93 -40,23 -80,36 -121,38l-11 -262c27,-5 56,-25 88,-61 32,-35 66,-82 100,-139 35,-58 69,-123 102,-197 34,-74 66,-152 96,-233 29,-81 56,-164 79,-247 24,-84 41,-164 54,-241l635 0zm1200 1132l-9 230 -890 0c9,-211 14,-448 14,-712 0,-254 -5,-471 -14,-650l850 0 -12 229c-209,-11 -399,-17 -569,-17 7,97 11,212 11,343 145,0 301,-3 467,-11l0 219c-163,-7 -319,-11 -467,-11 0,142 2,274 8,398 191,0 395,-6 611,-18zm1311 230l-328 0c-6,-10 -16,-34 -28,-71 -57,-220 -111,-362 -161,-426 -51,-63 -122,-95 -216,-95 -26,0 -47,1 -64,4 0,202 4,398 12,588l-295 0c9,-211 14,-448 14,-712 0,-254 -5,-471 -14,-650l295 0c-8,207 -12,394 -12,564 29,1 50,2 64,2 191,0 317,-167 377,-501 4,-24 12,-46 25,-65l282 0c-9,22 -23,60 -42,114 -46,163 -95,282 -148,357 -52,74 -123,130 -212,168l0 12c92,30 164,79 214,149 49,70 113,219 191,447 10,29 26,67 46,115zm1150 -1362l-8 225c-139,-11 -270,-16 -394,-16 -1,132 -2,279 -2,441 0,251 4,488 12,712l-293 0c9,-222 13,-459 13,-712 0,-159 -1,-306 -4,-441 -98,0 -233,6 -404,17l8 -226 1072 0zm1148 1114l-17 240c-100,24 -197,36 -293,36 -240,0 -422,-66 -547,-198 -125,-132 -188,-293 -188,-482 0,-196 67,-366 200,-511 133,-145 315,-218 546,-218 85,0 166,10 242,30l-37 241c-82,-26 -161,-40 -236,-40 -142,0 -247,45 -316,135 -69,90 -104,198 -104,327 0,131 41,245 123,341 82,96 197,144 345,144 86,0 180,-15 282,-45zm1084 18l-9 230 -890 0c9,-211 14,-448 14,-712 0,-254 -5,-471 -14,-650l850 0 -12 229c-209,-11 -399,-17 -569,-17 7,97 11,212 11,343 145,0 301,-3 467,-11l0 219c-163,-7 -319,-11 -467,-11 0,142 2,274 8,398 191,0 395,-6 611,-18zm1225 -775c0,166 -62,289 -186,369 -124,79 -276,119 -456,119 -32,0 -56,0 -70,-2 0,131 4,304 12,519l-294 0c9,-201 14,-439 14,-712 0,-251 -5,-468 -14,-650l182 0c26,0 75,-1 149,-3 73,-2 136,-3 190,-3 132,0 244,30 336,90 91,60 137,151 137,273zm-270 57c0,-149 -99,-223 -297,-223 -50,0 -102,5 -157,15 7,132 11,281 11,448 18,1 38,2 61,2 255,0 382,-81 382,-242zm1515 538c0,277 -226,416 -681,416 -78,0 -201,-2 -368,-6 9,-211 14,-448 14,-712 0,-254 -5,-471 -14,-650l170 0c32,0 86,-1 161,-3 76,-2 135,-3 178,-3 309,0 463,100 463,301 0,155 -79,257 -237,308l0 15c84,13 158,46 220,99 63,53 94,131 94,235zm-282 12c0,-139 -121,-209 -365,-209 -48,0 -90,2 -125,5 0,146 4,281 10,403 24,6 59,9 106,9 130,0 224,-16 284,-47 60,-31 90,-85 90,-161zm-77 -586c0,-125 -77,-187 -234,-187 -71,0 -135,5 -191,15 8,71 11,192 11,363 27,1 55,2 84,2 221,0 330,-64 330,-193zm1742 984l-296 0c10,-115 15,-289 15,-522 0,-94 4,-227 12,-398l-16 0c-25,62 -143,218 -354,468 -191,227 -286,378 -286,452l-226 0c11,-185 18,-400 18,-647 0,-250 -7,-488 -18,-715l295 0c-10,177 -15,369 -15,574 0,92 -5,207 -15,346l16 0c29,-70 150,-227 361,-474 187,-220 281,-369 281,-446l228 0c-10,227 -15,465 -15,715 0,247 5,462 15,647zm1276 -248l-17 240c-100,24 -197,36 -294,36 -239,0 -421,-66 -546,-198 -125,-132 -188,-293 -188,-482 0,-196 67,-366 200,-511 132,-145 315,-218 546,-218 85,0 166,10 242,30l-37 241c-82,-26 -161,-40 -236,-40 -142,0 -247,45 -316,135 -69,90 -104,198 -104,327 0,131 41,245 123,341 82,96 197,144 345,144 86,0 180,-15 282,-45z"/>
   <path class="fil0" d="M6102 12161c-47,0 -89,-7 -124,-20 -36,-14 -65,-34 -87,-60 -21,-26 -35,-57 -41,-93l0 0 106 0 0 0c6,27 22,48 49,63 26,15 60,22 102,22 41,0 72,-9 95,-27 22,-19 33,-45 33,-78l0 -1c0,-34 -10,-61 -29,-80 -20,-18 -48,-28 -84,-28l-108 0 0 -87 108 0c32,0 57,-8 75,-24 17,-17 26,-40 26,-70l0 -4c0,-30 -10,-52 -30,-67 -20,-15 -49,-23 -87,-23 -35,0 -65,7 -89,22 -24,14 -41,34 -50,59l0 0 -105 0 0 0c8,-35 23,-66 44,-91 22,-25 49,-45 82,-58 33,-13 71,-20 113,-20 49,0 91,7 125,20 35,13 61,32 79,57 18,25 27,56 27,93l0 3c0,35 -9,65 -26,90 -17,25 -42,43 -74,55 36,8 63,25 83,53 19,27 29,62 29,105l0 0c0,40 -10,74 -29,102 -19,29 -46,50 -82,65 -37,15 -80,22 -131,22zm740 -658l88 0 272 651 -112 0 -204 -525 -205 525 -111 0 272 -651zm-147 422l388 0 0 86 -388 0 0 -86zm1180 -422l104 0 0 651 -104 0 0 -651zm-419 0l103 0 0 651 -103 0 0 -651zm64 0l410 0 0 87 -410 0 0 -87zm1148 0l103 0 0 651 -103 0 0 -651zm-162 448c-47,0 -87,-9 -120,-25 -34,-16 -59,-39 -77,-70 -17,-31 -26,-68 -26,-112l0 -241 104 0 0 244c0,36 11,64 34,84 22,20 54,30 96,30 48,0 85,-11 111,-32 27,-22 40,-52 40,-91l0 -51 32 0 0 48c0,46 -7,84 -22,117 -16,32 -38,56 -67,73 -29,17 -64,26 -105,26zm791 -448l89 0 272 651 -112 0 -205 -525 -204 525 -112 0 272 -651zm-146 422l388 0 0 86 -388 0 0 -86zm987 236c-51,0 -96,-10 -135,-30 -39,-20 -69,-48 -90,-85 -21,-37 -32,-79 -32,-128l0 -178c0,-49 11,-91 32,-128 21,-37 51,-65 90,-85 39,-20 84,-31 135,-31 42,0 81,9 117,24 35,16 65,39 89,68 23,30 40,63 48,102l0 0 -106 0 0 0c-7,-20 -17,-39 -32,-54 -15,-16 -33,-29 -53,-37 -21,-9 -42,-13 -63,-13 -30,0 -57,6 -79,19 -23,13 -41,31 -53,54 -13,23 -19,50 -19,81l0 178c0,31 6,58 19,81 12,23 30,41 53,54 22,13 49,19 79,19 22,0 43,-4 63,-12 20,-8 38,-20 53,-36 15,-16 25,-35 32,-56l0 0 106 0 0 0c-8,38 -25,72 -49,101 -24,30 -53,52 -89,68 -36,16 -74,24 -116,24zm650 -604l104 0 0 597 -104 0 0 -597zm-208 -54l521 0 0 87 -521 0 0 -87zm1186 651l0 -512 13 12 -370 500 -85 0 0 -651 102 0 0 520 -12 -12 371 -508 84 0 0 651 -103 0zm677 -86l5 0c42,0 75,-16 99,-46 23,-31 35,-74 35,-129l0 -390 104 0 0 398c0,48 -9,89 -27,123 -18,33 -44,59 -78,77 -34,18 -75,26 -123,26l-15 0 0 -59zm-1 0l104 0 0 221 -104 0 0 -221zm0 0l640 0 0 86 -640 0 0 -86zm583 0l103 0 0 221 -103 0 0 -221zm-99 -565l103 0 0 651 -103 0 0 -651zm-280 0l334 0 0 87 -334 0 0 -87zm700 565l0 0c30,0 54,-7 73,-19 18,-12 32,-31 41,-56 8,-26 13,-59 13,-100l0 -390 103 0 0 385c0,63 -7,113 -23,152 -15,39 -39,68 -71,87 -32,18 -74,27 -126,27l-10 0 0 -86zm490 -565l104 0 0 651 -104 0 0 -651zm-299 0l354 0 0 87 -354 0 0 -87zm904 389c-42,0 -80,-8 -112,-24 -32,-16 -57,-39 -75,-68 -18,-29 -27,-64 -27,-102l0 0c0,-39 9,-73 27,-103 17,-29 42,-52 75,-68 32,-16 70,-24 112,-24l243 0 0 87 -247 0c-20,0 -37,4 -52,13 -16,9 -27,22 -35,38 -9,16 -13,35 -13,57l0 0c0,21 4,40 13,56 8,17 20,29 35,38 15,9 32,14 52,14l247 0 0 86 -243 0zm-21 -40l103 20 -179 282 -123 0 199 -302zm205 -349l104 0 0 651 -104 0 0 -651zm990 658c-51,0 -96,-10 -135,-30 -39,-20 -69,-48 -90,-85 -21,-37 -32,-79 -32,-128l0 -178c0,-49 11,-91 32,-128 21,-37 51,-65 90,-85 39,-20 84,-31 135,-31 42,0 81,9 117,24 35,16 65,39 89,68 24,30 40,63 48,102l0 0 -106 0 0 0c-6,-20 -17,-39 -32,-54 -15,-16 -33,-29 -53,-37 -20,-9 -41,-13 -63,-13 -30,0 -57,6 -79,19 -23,13 -41,31 -53,54 -13,23 -19,50 -19,81l0 178c0,31 6,58 19,81 12,23 30,41 53,54 22,13 49,19 79,19 22,0 43,-4 63,-12 20,-8 38,-20 53,-36 15,-16 26,-35 32,-56l0 0 106 0 0 0c-8,38 -25,72 -49,101 -24,30 -53,52 -89,68 -35,16 -74,24 -116,24zm963 -658l103 0 0 651 -103 0 0 -651zm-420 0l104 0 0 651 -104 0 0 -651zm65 0l410 0 0 87 -410 0 0 -87zm783 0l104 0 0 651 -104 0 0 -651zm50 565l424 0 0 86 -424 0 0 -86zm0 -280l368 0 0 86 -368 0 0 -86zm0 -285l424 0 0 87 -424 0 0 -87zm1133 0l103 0 0 651 -103 0 0 -651zm-355 565l491 0 0 86 -491 0 0 -86zm454 0l104 0 0 221 -104 0 0 -221zm-519 -565l104 0 0 651 -104 0 0 -651zm978 54l104 0 0 597 -104 0 0 -597zm-208 -54l521 0 0 87 -521 0 0 -87zm744 0l103 0 0 651 -103 0 0 -651zm50 565l424 0 0 86 -424 0 0 -86zm0 -280l368 0 0 86 -368 0 0 -86zm0 -285l424 0 0 87 -424 0 0 -87zm893 365l-15 -22 -240 -343 116 0 179 265 16 25 253 361 -117 0 -192 -286zm-4 -86l185 -279 116 0 -244 353 -198 298 -116 0 257 -372zm975 -279l104 0 0 651 -104 0 0 -651zm-419 0l104 0 0 651 -104 0 0 -651zm64 287l410 0 0 87 -410 0 0 -87zm1226 364l0 -512 12 12 -370 500 -84 0 0 -651 102 0 0 520 -12 -12 371 -508 84 0 0 651 -103 0zm618 -357l214 -294 130 0 -292 374 -52 -80zm-1 71l91 -47 285 333 -144 0 -232 -286zm-190 -365l104 0 0 651 -104 0 0 -651zm51 285l231 0 0 86 -231 0 0 -86zm1201 366l0 -512 12 12 -370 500 -84 0 0 -651 102 0 0 520 -12 -12 371 -508 84 0 0 651 -103 0z"/>
  </g>
 </g>
</svg>
