<svg width="25" height="25" viewBox="0 0 25 25" fill="none" xmlns="http://www.w3.org/2000/svg">
<path d="M12.4994 0C7.42483 0 3.2959 4.12893 3.2959 9.204C3.2959 10.5278 3.56684 11.7917 4.10081 12.9609C6.40193 17.9963 10.8138 23.3127 12.1115 24.8219C12.2087 24.9348 12.3505 24.9997 12.4996 24.9997C12.6488 24.9997 12.7905 24.9348 12.8878 24.8219C14.1849 23.3129 18.5968 17.9968 20.8987 12.9609C21.4329 11.7917 21.7036 10.5278 21.7036 9.204C21.7031 4.12893 17.5742 0 12.4994 0ZM12.4994 13.9846C9.86335 13.9846 7.71854 11.8398 7.71854 9.20374C7.71854 6.56745 9.86335 4.42265 12.4994 4.42265C15.1354 4.42265 17.2802 6.56745 17.2802 9.20374C17.2805 11.8398 15.1357 13.9846 12.4994 13.9846Z" fill="#085CD9"/>
</svg>
